#N canvas 468 23 883 855 10;
#X obj 88 625 dac~;
#X obj 82 554 *~ 0;
#X obj 240 263 vsl 15 128 0 127 0 0 empty empty empty 0 -9 0 10 -262144
-1 -1 0 1;
#X obj 240 399 / 127;
#X floatatom 240 422 5 0 0 0 - - -;
#X floatatom 99 186 5 0 0 0 - - -;
#X msg 30 62 0;
#X msg 30 85 1;
#X msg 31 108 2;
#X msg 31 132 3;
#X floatatom 58 187 5 0 0 0 - - -;
#X msg 91 84 4;
#X msg 92 107 5;
#X msg 92 131 6;
#X obj 79 207 oscillator~;
#X obj 79 408 filter~;
#X msg 99 260 0;
#X msg 99 283 1;
#X msg 100 306 2;
#X msg 100 330 3;
#X floatatom 94 377 5 0 0 0 - - -;
#X floatatom 140 377 5 0 0 0 - - -;
#X obj 80 485 amplifier~;
#X connect 1 0 0 0;
#X connect 1 0 0 1;
#X connect 2 0 3 0;
#X connect 3 0 4 0;
#X connect 4 0 1 1;
#X connect 5 0 14 1;
#X connect 6 0 10 0;
#X connect 7 0 10 0;
#X connect 8 0 10 0;
#X connect 9 0 10 0;
#X connect 10 0 14 0;
#X connect 11 0 10 0;
#X connect 12 0 10 0;
#X connect 13 0 10 0;
#X connect 14 0 15 0;
#X connect 15 0 22 0;
#X connect 16 0 20 0;
#X connect 17 0 20 0;
#X connect 18 0 20 0;
#X connect 19 0 20 0;
#X connect 20 0 15 1;
#X connect 21 0 15 2;
#X connect 22 0 1 0;
