#N canvas 596 296 500 475 10;
#X obj 5 73 random 100;
#X obj 5 29 metro 500;
#X obj 5 6 tgl 15 0 empty empty empty 17 7 0 10 -262144 -1 -1 0 1;
#X obj 5 52 bng 15 250 50 0 empty empty empty 17 7 0 10 -262144 -1
-1;
#X floatatom 5 98 5 0 0 0 - - -;
#X obj 81 89 tgl 15 0 empty empty empty 17 7 0 10 -262144 -1 -1 1 1
;
#X obj 81 109 metro 500;
#X obj 81 131 bng 15 250 50 0 empty empty empty 17 7 0 10 -262144 -1
-1;
#X floatatom 174 47 5 0 0 0 - - -;
#X text 208 47 max step;
#X obj 125 158 random 10;
#X msg 174 27 10;
#X obj 174 6 loadbang;
#X floatatom 125 183 5 0 0 0 - - -;
#X obj 174 68 * 2;
#X obj 176 108 + 1;
#X floatatom 176 133 5 0 0 0 - - -;
#X floatatom 175 88 5 0 0 0 - - -;
#X obj 125 206 - 0;
#X floatatom 125 231 5 0 0 0 - - -;
#X text 208 86 positive and negative;
#X text 201 108 add zero option;
#X text 212 132 possible options;
#X floatatom 131 89 5 0 0 0 - - -;
#X msg 131 70 500;
#X text 165 230 value to add to current position;
#X connect 0 0 4 0;
#X connect 1 0 3 0;
#X connect 2 0 1 0;
#X connect 3 0 0 0;
#X connect 5 0 6 0;
#X connect 6 0 7 0;
#X connect 7 0 10 0;
#X connect 8 0 14 0;
#X connect 8 0 18 1;
#X connect 10 0 13 0;
#X connect 11 0 8 0;
#X connect 12 0 11 0;
#X connect 12 0 24 0;
#X connect 13 0 18 0;
#X connect 14 0 17 0;
#X connect 15 0 16 0;
#X connect 16 0 10 1;
#X connect 17 0 15 0;
#X connect 18 0 19 0;
#X connect 23 0 6 1;
#X connect 24 0 23 0;
