#N canvas 122 23 1002 830 10;
#X obj 47 606 outlet;
#X obj 33 457 osc~;
#X msg 257 206 \; pd dsp 1;
#X msg 330 206 \; pd dsp 0;
#X floatatom 32 428 5 0 0 0 - - -;
#X obj 227 523 tabwrite~ array1;
#N canvas 234 39 762 809 (subpatch) 0;
#X array array1 100 float 0;
#X coords 0 1 99 -1 200 140 1 0 0;
#X restore 701 342 graph;
#X msg 329 412 stop;
#X obj 302 322 tgl 15 0 empty empty empty 17 7 0 10 -262144 -1 -1 1
1;
#X obj 263 326 bng 15 250 50 0 empty empty empty 17 7 0 10 -262144
-1 -1;
#X msg 285 412 bang;
#X obj 301 349 metro 500;
#X text 678 476 -1;
#X text 685 343 1;
#X text 684 404 0;
#X obj 32 489 *~ 0.5;
#X obj 32 518 +~ 0.5;
#X text 65 457 bipolar sine;
#X text 51 537 unipolar sine;
#X text 17 50 inlets:;
#X text 15 124 outlets:;
#X text 15 141 audio signal with VCO \, between -1 and 1;
#X text 18 14 vca~.pd;
#X text 19 32 voltage controlled amplifier;
#X text 16 66 trigger. bang \, to start;
#X text 15 100 adsr: list with 4 numbers \, values for ADSR;
#X obj 644 53 unpack 0 0 0 0, f 20;
#X floatatom 644 96 5 0 0 0 - - -;
#X obj 372 42 inlet;
#X text 16 82 audio: audio to be processed;
#X obj 488 41 inlet;
#X obj 644 32 inlet;
#X floatatom 684 96 5 0 0 0 - - -;
#X floatatom 723 96 5 0 0 0 - - -;
#X floatatom 761 96 5 0 0 0 - - -;
#X text 640 16 adsr values;
#X text 489 26 audio;
#X obj 372 68 bng 15 250 50 0 empty empty empty 17 7 0 10 -262144 -1
-1;
#X text 370 22 trigger;
#X obj 542 353 line~;
#X text 71 193 ADSR steps when trigger:;
#X text 71 225 go from 0 to S level in D ms;
#X text 72 207 go from 0 to 1 in A ms;
#X text 72 243 stay in S level;
#X obj 792 22 loadbang;
#X obj 792 43 bng 15 250 50 0 empty empty empty 17 7 0 10 -262144 -1
-1;
#X text 810 42 ADSR default values;
#X msg 902 62 1000;
#X text 70 260 go from S level to 0 in R ms;
#X text 446 127 0->1 in A ms;
#X msg 487 222 0 \, 1 \$1;
#X text 497 241 attack ramp;
#X text 597 268 decay ramp;
#X text 389 68 start ADSR;
#X obj 427 127 bng 15 250 50 0 empty empty empty 17 7 0 10 -262144
-1 -1;
#X floatatom 501 180 5 0 0 0 - - -;
#X floatatom 588 196 5 0 0 0 - - -;
#X floatatom 697 200 5 0 0 0 - - -;
#X floatatom 614 147 5 0 0 0 - - -;
#X floatatom 723 122 5 0 0 0 - - -;
#X text 626 171 decay;
#X text 736 176 sustain;
#X obj 487 201 float;
#X obj 587 224 pack 0 0, f 19;
#X obj 588 167 float;
#X obj 697 175 float;
#X obj 696 149 t b f;
#X msg 587 249 \$2 \$1;
#X obj 577 94 bng 15 250 50 0 empty empty empty 17 7 0 10 -262144 -1
-1;
#X obj 581 143 bng 15 250 50 0 empty empty empty 17 7 0 10 -262144
-1 -1;
#X msg 600 95 stop;
#X obj 577 118 delay;
#X msg 792 63 2000;
#X msg 829 61 1000;
#X msg 867 62 0.7;
#X obj 843 150 delay;
#X msg 862 116 stop;
#X obj 834 109 bng 15 250 50 0 empty empty empty 17 7 0 10 -262144
-1 -1;
#X msg 837 213 0 \$1;
#X obj 837 189 float;
#X obj 811 157 bng 15 250 50 0 empty empty empty 17 7 0 10 -262144
-1 -1;
#X text 880 217 release ramp;
#X connect 1 0 15 0;
#X connect 4 0 1 0;
#X connect 7 0 5 0;
#X connect 8 0 11 0;
#X connect 9 0 10 0;
#X connect 10 0 5 0;
#X connect 11 0 5 0;
#X connect 15 0 16 0;
#X connect 26 0 27 0;
#X connect 26 1 32 0;
#X connect 26 2 33 0;
#X connect 26 3 34 0;
#X connect 27 0 55 0;
#X connect 27 0 71 1;
#X connect 28 0 37 0;
#X connect 31 0 26 0;
#X connect 32 0 58 0;
#X connect 33 0 59 0;
#X connect 37 0 54 0;
#X connect 39 0 5 0;
#X connect 44 0 45 0;
#X connect 45 0 72 0;
#X connect 45 0 73 0;
#X connect 45 0 74 0;
#X connect 45 0 47 0;
#X connect 47 0 34 0;
#X connect 50 0 39 0;
#X connect 54 0 62 0;
#X connect 54 0 68 0;
#X connect 55 0 62 1;
#X connect 56 0 63 0;
#X connect 57 0 63 1;
#X connect 58 0 64 1;
#X connect 59 0 66 0;
#X connect 62 0 50 0;
#X connect 63 0 67 0;
#X connect 64 0 56 0;
#X connect 65 0 57 0;
#X connect 66 0 65 0;
#X connect 66 1 65 1;
#X connect 67 0 39 0;
#X connect 68 0 71 0;
#X connect 69 0 64 0;
#X connect 70 0 71 0;
#X connect 71 0 69 0;
#X connect 72 0 27 0;
#X connect 73 0 32 0;
#X connect 74 0 33 0;
#X connect 76 0 75 0;
#X connect 77 0 75 0;
#X connect 78 0 39 0;
#X connect 79 0 78 0;
#X connect 80 0 79 0;
