#N canvas 255 23 762 805 10;
#X obj 26 230 inlet;
#X obj 47 606 outlet;
#X obj 33 457 osc~;
#X msg 268 250 \; pd dsp 1;
#X msg 341 250 \; pd dsp 0;
#X floatatom 32 428 5 0 0 0 - - -;
#X obj 227 523 tabwrite~ array1;
#N canvas 234 39 762 809 (subpatch) 0;
#X array array1 100 float 0;
#X coords 0 1 99 -1 200 140 1 0 0;
#X restore 486 161 graph;
#X msg 302 462 stop;
#X obj 90 280 phasor~;
#X obj 302 322 tgl 15 0 empty empty empty 17 7 0 10 -262144 -1 -1 1
1;
#X obj 263 326 bng 15 250 50 0 empty empty empty 17 7 0 10 -262144
-1 -1;
#X msg 285 412 bang;
#X obj 301 349 metro 500;
#X floatatom 89 249 5 0 0 0 - - -;
#X text 688 290 -1;
#X text 695 157 1;
#X text 694 218 0;
#X obj 90 315 *~ 2;
#X obj 90 341 -~ 1;
#X text 137 246 unipolar sawtooth;
#X text 99 367 bipolar sawtooth;
#X obj 32 489 *~ 0.5;
#X obj 32 518 +~ 0.5;
#X text 65 457 bipolar sine;
#X text 51 537 unipolar sine;
#X text 18 14 vco~.pd;
#X text 16 34 output unipolar and bipolar sine \, sawtooth \, square
waveforms;
#X text 17 52 inlets:;
#X text 15 106 outlets:;
#X text 15 71 frequency (Hz). default 0;
#X text 16 85 waveform: 0 off \, 1 bp sine \, 2 up sine \, 3 bp saw
\, 4 up saw \, 5 bp sq \, 6 up sq, f 76;
#X text 15 123 audio signal with VCO \, between -1 and 1;
#X connect 0 0 14 0;
#X connect 2 0 22 0;
#X connect 5 0 2 0;
#X connect 8 0 6 0;
#X connect 9 0 18 0;
#X connect 10 0 13 0;
#X connect 11 0 12 0;
#X connect 12 0 6 0;
#X connect 13 0 6 0;
#X connect 14 0 9 0;
#X connect 18 0 19 0;
#X connect 19 0 6 0;
#X connect 22 0 23 0;
